<?xml version="1.0" standalone="no"?>
<svg viewBox="0 0 200 200" xmlns="http://www.w3.org/2000/svg">
  <path fill="#9EF0F0" d="M4.2,-8.8C4.8,-6.1,4.2,-3.9,19.5,-0.2C34.7,3.5,65.9,8.7,73,15.8C80.2,22.8,63.5,31.6,49.4,36.3C35.2,41,23.8,41.4,15.8,35.4C7.8,29.4,3.3,16.8,-10.3,19.8C-23.9,22.8,-46.5,41.4,-59.1,42.5C-71.6,43.6,-73.9,27.3,-67.5,15C-61,2.7,-45.7,-5.6,-33.8,-8.8C-22,-12.1,-13.8,-10.3,-8.7,-10.9C-3.7,-11.5,-1.8,-14.6,0,-14.5C1.8,-14.5,3.6,-11.4,4.2,-8.8Z" transform="translate(100 100)" />
</svg>
