<?xml version="1.0" standalone="no"?>
<svg viewBox="0 0 200 200" xmlns="http://www.w3.org/2000/svg">
  <path fill="#BAE6FF" d="M31.8,-47.8C40.1,-44.2,44.8,-33.4,50.6,-22.5C56.5,-11.7,63.6,-0.8,62.4,9.2C61.3,19.1,51.9,28,44.7,41.8C37.5,55.5,32.4,74.1,23.7,73.1C15.1,72.2,3,51.6,-13.4,46.5C-29.9,41.3,-50.7,51.6,-65.1,48.7C-79.6,45.9,-87.9,29.8,-84.6,15.6C-81.4,1.3,-66.7,-11.2,-55.4,-21C-44.2,-30.7,-36.5,-37.8,-27.8,-41.1C-19.2,-44.5,-9.6,-44.1,1.1,-45.9C11.8,-47.6,23.6,-51.3,31.8,-47.8Z" transform="translate(100 100)" />
</svg>
